<?xml version="1.0" standalone="no"?>
<!DOCTYPE svg PUBLIC "-//W3C//DTD SVG 20010904//EN"
 "http://www.w3.org/TR/2001/REC-SVG-20010904/DTD/svg10.dtd">
<svg version="1.0" xmlns="http://www.w3.org/2000/svg"
 width="832.000000pt" height="832.000000pt" viewBox="0 0 832.000000 832.000000"
 preserveAspectRatio="xMidYMid meet">
<metadata>
Created by potrace 1.14, written by Peter Selinger 2001-2017
</metadata>
<g transform="translate(0.000000,832.000000) scale(0.100000,-0.100000)"
fill="#000000" stroke="none">
<path d="M3444 6564 c-362 -207 -857 -489 -1099 -627 -1658 -944 -1989 -1133
-2148 -1226 -27 -16 -27 -17 -25 -110 l3 -94 270 -154 c149 -85 1033 -589
1967 -1119 l1696 -965 1514 862 c832 474 1717 977 1965 1118 l453 256 -3 104
-2 105 -360 204 c-866 491 -2444 1384 -2935 1662 -294 166 -558 315 -586 331
l-50 28 -660 -375z"/>
<path d="M5230 2602 c-602 -343 -1103 -626 -1113 -629 -10 -3 -145 67 -355
185 -420 237 -893 502 -895 502 -1 0 0 -233 3 -517 l5 -518 140 -47 c549 -183
1235 -217 1855 -91 614 124 1120 415 1333 766 110 183 128 280 125 678 l-3
296 -1095 -625z"/>
<path d="M1892 2873 c4 -332 5 -351 27 -418 83 -250 269 -462 561 -641 86 -52
300 -157 307 -150 1 1 3 236 3 521 l1 518 -58 35 c-64 38 -784 452 -821 471
l-23 12 3 -348z"/>
</g>
</svg>
